<?xml version="1.0" encoding="UTF-8" standalone="no"?>
<!DOCTYPE svg PUBLIC "-//W3C//DTD SVG 1.1//EN" "http://www.w3.org/Graphics/SVG/1.1/DTD/svg11.dtd">
<svg xmlns="http://www.w3.org/2000/svg" version="1.1" viewBox="0.00 0.00 500.00 500.00">
<g stroke-width="2.00" fill="none" stroke-linecap="butt">
<path stroke="#12778c" vector-effect="non-scaling-stroke" d="
  M 333.91 106.71
  Q 332.19 110.31 333.92 114.47"
/>
<path stroke="#23d7d2" vector-effect="non-scaling-stroke" d="
  M 329.84 119.15
  C 310.97 117.06 294.39 120.72 277.80 129.31
  Q 268.29 134.23 264.94 136.93
  C 253.44 146.17 242.04 156.03 229.72 163.66
  C 203.20 180.08 169.89 182.69 143.58 164.17
  Q 135.38 158.39 124.20 147.91
  C 123.55 147.31 123.43 146.60 122.93 145.86"
/>
<path stroke="#a2d3ac" vector-effect="non-scaling-stroke" d="
  M 313.99 142.59
  C 298.98 143.59 282.41 152.88 270.89 162.13
  C 264.01 167.66 257.62 173.69 250.49 178.64
  C 245.23 182.29 239.70 186.53 234.54 189.35
  C 209.49 203.05 178.82 205.72 151.99 196.85
  Q 145.02 194.55 137.09 189.40
  Q 120.76 178.80 108.99 165.41"
/>
<path stroke="#ff816d" vector-effect="non-scaling-stroke" d="
  M 150.48 240.26
  C 147.71 239.39 144.81 238.74 142.26 237.39
  Q 130.31 231.05 125.14 226.65
  Q 110.35 214.03 91.71 208.03"
/>
<path stroke="#12778c" vector-effect="non-scaling-stroke" d="
  M 260.21 250.52
  L 240.62 268.80"
/>
<path stroke="#917366" vector-effect="non-scaling-stroke" d="
  M 223.54 250.25
  L 235.51 238.74"
/>
<path stroke="#ff816d" vector-effect="non-scaling-stroke" d="
  M 177.43 253.31
  Q 174.04 246.65 172.52 238.60"
/>
<path stroke="#808593" vector-effect="non-scaling-stroke" d="
  M 233.10 315.64
  L 238.91 329.22"
/>
<path stroke="#917366" vector-effect="non-scaling-stroke" d="
  M 387.12 156.66
  Q 381.04 157.23 378.95 152.01"
/>
<path stroke="#ff816d" vector-effect="non-scaling-stroke" d="
  M 406.26 194.36
  Q 391.23 197.61 378.98 192.06
  C 368.71 187.40 359.39 183.25 349.58 181.84"
/>
<path stroke="#ff7064" vector-effect="non-scaling-stroke" d="
  M 414.79 232.35
  C 403.39 237.42 393.82 236.17 382.62 231.36
  C 374.72 227.97 367.17 223.73 359.03 222.13
  Q 333.92 217.19 307.17 224.03"
/>
<path stroke="#bec9aa" vector-effect="non-scaling-stroke" d="
  M 412.84 279.68
  Q 395.28 284.87 379.26 276.81
  C 371.61 272.96 363.51 268.50 355.88 266.25
  Q 337.26 260.76 318.70 265.97
  Q 313.46 267.43 303.84 272.16
  Q 296.74 275.66 289.28 279.12"
/>
<path stroke="#42ceea" vector-effect="non-scaling-stroke" d="
  M 399.83 321.45
  C 384.52 322.32 375.92 313.51 362.60 308.08
  Q 337.99 298.07 313.27 307.17
  Q 308.27 309.01 298.94 314.49
  Q 286.14 322.00 272.77 328.49
  Q 265.26 332.13 256.72 333.20"
/>
<path stroke="#14679d" vector-effect="non-scaling-stroke" d="
  M 377.68 356.05
  C 358.72 341.21 333.23 338.88 311.35 347.71
  C 306.33 349.74 300.93 353.22 295.82 356.05
  Q 285.42 361.83 284.22 362.44
  Q 267.03 371.29 247.40 373.29"
/>
<path stroke="#91355a" vector-effect="non-scaling-stroke" d="
  M 189.60 363.80
  Q 191.32 365.19 195.24 364.17
  Q 197.77 363.52 198.29 361.24
  C 199.59 355.59 196.61 352.74 192.40 348.53
  C 188.51 344.63 184.20 341.12 180.54 337.16
  Q 173.94 330.02 166.86 323.37
  C 158.93 315.93 151.38 307.57 143.10 300.16
  Q 139.03 296.51 135.09 299.05
  Q 131.76 301.19 131.87 305.09"
/>
</g>
<ellipse fill="#222752" cx="0.00" cy="0.00" transform="translate(366.06,84.44) rotate(105.6)" rx="6.33" ry="6.05"/>
<path fill="#01c7c5" d="
  M 333.91 106.71
  Q 332.19 110.31 333.92 114.47
  Q 329.37 114.72 329.84 119.15
  C 310.97 117.06 294.39 120.72 277.80 129.31
  Q 268.29 134.23 264.94 136.93
  C 253.44 146.17 242.04 156.03 229.72 163.66
  C 203.20 180.08 169.89 182.69 143.58 164.17
  Q 135.38 158.39 124.20 147.91
  C 123.55 147.31 123.43 146.60 122.93 145.86
  C 161.47 99.27 222.34 75.43 282.25 87.78
  C 301.46 91.74 317.14 96.79 333.91 106.71
  Z"
/>
<ellipse fill="#222752" cx="0.00" cy="0.00" transform="translate(352.46,97.23) rotate(-14.6)" rx="6.35" ry="6.08"/>
<path fill="#222752" d="
  M 260.21 250.52
  L 240.62 268.80
  C 237.80 260.99 230.11 254.83 223.54 250.25
  L 235.51 238.74
  Q 236.96 238.56 237.98 237.51
  C 246.67 228.57 255.89 220.22 264.58 211.29
  Q 268.92 206.84 273.42 202.56
  Q 279.61 196.67 286.69 189.53
  C 292.52 183.64 298.91 178.05 304.55 172.29
  C 311.36 165.34 318.53 158.87 325.34 151.82
  C 332.67 144.23 340.63 139.62 340.95 128.12
  C 341.04 125.22 342.14 123.32 344.06 121.56
  Q 357.24 109.43 369.43 96.32
  C 373.85 91.56 380.99 91.99 385.12 96.67
  C 392.20 104.68 405.71 112.31 393.83 124.27
  Q 380.88 137.30 367.83 150.25
  Q 367.46 150.61 366.95 150.67
  Q 358.82 151.49 353.09 157.33
  C 341.86 168.80 330.20 179.83 319.10 191.41
  C 315.67 194.98 311.59 198.33 308.40 201.64
  Q 297.94 212.48 286.98 222.81
  C 282.25 227.27 277.14 233.38 271.69 238.18
  Q 265.97 243.23 260.66 248.70
  C 260.15 249.23 260.04 249.87 260.21 250.52
  Z"
/>
<path fill="#222752" d="
  M 333.92 114.47
  Q 332.19 110.31 333.91 106.71
  C 344.27 97.58 349.55 115.95 339.54 116.27
  C 337.61 116.33 335.73 115.20 333.92 114.47
  Z"
/>
<ellipse fill="#222752" cx="0.00" cy="0.00" transform="translate(409.32,121.11) rotate(104.0)" rx="6.26" ry="5.99"/>
<path fill="#45e7df" d="
  M 329.84 119.15
  Q 326.34 133.84 313.99 142.59
  C 298.98 143.59 282.41 152.88 270.89 162.13
  C 264.01 167.66 257.62 173.69 250.49 178.64
  C 245.23 182.29 239.70 186.53 234.54 189.35
  C 209.49 203.05 178.82 205.72 151.99 196.85
  Q 145.02 194.55 137.09 189.40
  Q 120.76 178.80 108.99 165.41
  L 122.93 145.86
  C 123.43 146.60 123.55 147.31 124.20 147.91
  Q 135.38 158.39 143.58 164.17
  C 169.89 182.69 203.20 180.08 229.72 163.66
  C 242.04 156.03 253.44 146.17 264.94 136.93
  Q 268.29 134.23 277.80 129.31
  C 294.39 120.72 310.97 117.06 329.84 119.15
  Z"
/>
<ellipse fill="#222752" cx="0.00" cy="0.00" transform="translate(397.86,136.52) rotate(-13.4)" rx="6.30" ry="6.07"/>
<path fill="#ffbf79" d="
  M 313.99 142.59
  Q 297.62 158.47 281.30 174.30
  Q 258.53 196.38 235.97 219.31
  A 2.00 1.99 -53.5 0 1 233.61 219.67
  C 222.56 213.82 213.38 209.50 200.43 209.93
  Q 177.84 210.67 161.49 226.16
  C 157.42 230.01 154.20 235.57 150.48 240.26
  C 147.71 239.39 144.81 238.74 142.26 237.39
  Q 130.31 231.05 125.14 226.65
  Q 110.35 214.03 91.71 208.03
  Q 94.44 196.63 97.93 188.00
  Q 101.53 179.09 108.99 165.41
  Q 120.76 178.80 137.09 189.40
  Q 145.02 194.55 151.99 196.85
  C 178.82 205.72 209.49 203.05 234.54 189.35
  C 239.70 186.53 245.23 182.29 250.49 178.64
  C 257.62 173.69 264.01 167.66 270.89 162.13
  C 282.41 152.88 298.98 143.59 313.99 142.59
  Z"
/>
<path fill="#222752" d="
  M 387.12 156.66
  Q 381.04 157.23 378.95 152.01
  C 379.49 136.92 399.70 146.96 387.12 156.66
  Z"
/>
<path fill="#ffbf79" d="
  M 378.95 152.01
  Q 381.04 157.23 387.12 156.66
  Q 399.24 173.99 406.26 194.36
  Q 391.23 197.61 378.98 192.06
  C 368.71 187.40 359.39 183.25 349.58 181.84
  C 354.51 177.38 359.32 171.83 364.78 168.00
  C 368.24 165.58 372.54 164.81 376.63 164.17
  A 2.32 2.30 -3.5 0 0 378.58 161.98
  L 378.95 152.01
  Z"
/>
<path fill="#ff4361" d="
  M 349.58 181.84
  C 359.39 183.25 368.71 187.40 378.98 192.06
  Q 391.23 197.61 406.26 194.36
  Q 412.36 212.93 414.79 232.35
  C 403.39 237.42 393.82 236.17 382.62 231.36
  C 374.72 227.97 367.17 223.73 359.03 222.13
  Q 333.92 217.19 307.17 224.03
  Q 318.63 213.21 328.87 202.38
  Q 331.37 199.73 335.58 196.11
  C 340.79 191.63 344.91 185.99 349.58 181.84
  Z"
/>
<path fill="#ff4361" d="
  M 91.71 208.03
  Q 110.35 214.03 125.14 226.65
  Q 130.31 231.05 142.26 237.39
  C 144.81 238.74 147.71 239.39 150.48 240.26
  Q 143.69 252.32 131.73 257.61
  C 126.99 259.70 120.56 260.18 115.51 261.54
  Q 104.97 264.36 96.23 271.54
  C 93.97 273.39 91.83 276.41 89.34 278.65
  Q 88.89 279.06 88.78 278.46
  Q 82.53 243.27 91.71 208.03
  Z"
/>
<path fill="#fe9c67" d="
  M 414.79 232.35
  Q 417.41 256.50 412.84 279.68
  Q 395.28 284.87 379.26 276.81
  C 371.61 272.96 363.51 268.50 355.88 266.25
  Q 337.26 260.76 318.70 265.97
  Q 313.46 267.43 303.84 272.16
  Q 296.74 275.66 289.28 279.12
  Q 289.21 272.71 287.98 267.15
  C 286.86 262.15 283.91 256.85 281.76 251.89
  A 2.40 2.39 55.6 0 1 282.25 249.25
  L 307.17 224.03
  Q 333.92 217.19 359.03 222.13
  C 367.17 223.73 374.72 227.97 382.62 231.36
  C 393.82 236.17 403.39 237.42 414.79 232.35
  Z"
/>
<path fill="#ffbf79" d="
  M 235.51 238.74
  L 223.54 250.25
  Q 199.76 237.58 177.43 253.31
  Q 174.04 246.65 172.52 238.60
  Q 190.27 220.18 215.82 228.12
  C 221.40 229.85 227.81 236.67 235.51 238.74
  Z"
/>
<path fill="#ff4361" d="
  M 172.52 238.60
  Q 174.04 246.65 177.43 253.31
  Q 174.97 255.92 172.22 258.69
  C 158.71 272.28 157.90 294.48 169.09 309.67
  C 173.05 315.05 177.59 319.84 183.63 322.84
  C 200.00 330.97 219.36 328.90 233.10 315.64
  L 238.91 329.22
  Q 238.32 332.57 237.14 336.46
  C 234.94 343.75 234.80 349.94 234.02 358.48
  Q 232.77 372.24 224.21 384.72
  C 217.82 394.03 207.46 402.11 195.89 403.49
  Q 195.25 403.57 194.55 403.33
  C 146.14 387.00 109.74 348.27 93.83 299.98
  C 93.45 298.83 93.78 297.51 94.50 296.42
  Q 103.93 282.12 119.98 277.42
  C 125.98 275.67 135.46 273.75 141.62 270.72
  C 153.66 264.78 159.42 256.38 167.87 243.17
  Q 168.86 241.62 172.52 238.60
  Z
  M 131.87 305.09
  Q 124.77 305.23 123.14 310.78
  C 121.12 317.63 129.28 321.93 133.13 326.03
  C 143.34 336.91 150.04 342.60 158.84 351.92
  Q 164.46 357.88 176.49 368.83
  C 182.16 374.00 187.58 371.02 189.60 363.80
  Q 191.32 365.19 195.24 364.17
  Q 197.77 363.52 198.29 361.24
  C 199.59 355.59 196.61 352.74 192.40 348.53
  C 188.51 344.63 184.20 341.12 180.54 337.16
  Q 173.94 330.02 166.86 323.37
  C 158.93 315.93 151.38 307.57 143.10 300.16
  Q 139.03 296.51 135.09 299.05
  Q 131.76 301.19 131.87 305.09
  Z"
/>
<path fill="#01c7c5" d="
  M 260.21 250.52
  Q 265.91 257.12 268.86 262.15
  Q 273.31 269.72 273.42 279.51
  Q 273.64 296.95 260.23 307.77
  C 252.00 314.41 244.93 319.32 238.91 329.22
  L 233.10 315.64
  Q 251.27 295.02 240.62 268.80
  L 260.21 250.52
  Z"
/>
<path fill="#7df6ed" d="
  M 412.84 279.68
  Q 409.06 301.95 399.83 321.45
  C 384.52 322.32 375.92 313.51 362.60 308.08
  Q 337.99 298.07 313.27 307.17
  Q 308.27 309.01 298.94 314.49
  Q 286.14 322.00 272.77 328.49
  Q 265.26 332.13 256.72 333.20
  Q 260.85 327.02 262.43 325.89
  C 266.90 322.71 271.78 319.58 275.39 315.82
  Q 290.13 300.48 289.28 279.12
  Q 296.74 275.66 303.84 272.16
  Q 313.46 267.43 318.70 265.97
  Q 337.26 260.76 355.88 266.25
  C 363.51 268.50 371.61 272.96 379.26 276.81
  Q 395.28 284.87 412.84 279.68
  Z"
/>
<path fill="#222752" d="
  M 189.60 363.80
  Q 179.61 351.62 175.35 347.90
  C 165.69 339.48 157.20 330.05 147.82 321.34
  Q 139.45 313.56 131.87 305.09
  Q 131.76 301.19 135.09 299.05
  Q 139.03 296.51 143.10 300.16
  C 151.38 307.57 158.93 315.93 166.86 323.37
  Q 173.94 330.02 180.54 337.16
  C 184.20 341.12 188.51 344.63 192.40 348.53
  C 196.61 352.74 199.59 355.59 198.29 361.24
  Q 197.77 363.52 195.24 364.17
  Q 191.32 365.19 189.60 363.80
  Z"
/>
<path fill="#06a6e7" d="
  M 399.83 321.45
  Q 390.97 340.36 377.68 356.05
  C 358.72 341.21 333.23 338.88 311.35 347.71
  C 306.33 349.74 300.93 353.22 295.82 356.05
  Q 285.42 361.83 284.22 362.44
  Q 267.03 371.29 247.40 373.29
  Q 248.55 368.89 249.43 364.64
  C 250.76 358.22 250.64 350.50 251.73 344.51
  Q 252.89 338.08 256.72 333.20
  Q 265.26 332.13 272.77 328.49
  Q 286.14 322.00 298.94 314.49
  Q 308.27 309.01 313.27 307.17
  Q 337.99 298.07 362.60 308.08
  C 375.92 313.51 384.52 322.32 399.83 321.45
  Z"
/>
<path fill="#222752" d="
  M 377.68 356.05
  C 355.39 381.18 326.21 399.59 293.60 407.67
  Q 257.35 416.65 220.22 410.59
  A 0.38 0.38 0.0 0 1 220.10 409.88
  C 234.39 402.07 242.82 388.37 247.40 373.29
  Q 267.03 371.29 284.22 362.44
  Q 285.42 361.83 295.82 356.05
  C 300.93 353.22 306.33 349.74 311.35 347.71
  C 333.23 338.88 358.72 341.21 377.68 356.05
  Z"
/>
</svg>
